{
  "accessors": [
    {
      "bufferView": 2,
      "componentType": 5126,
      "count": 65532,
      "max": [
        12.137067794799805,
        7.141084671020508,
        18.671361923217773
      ],
      "min": [
        0.0,
        0.0,
        0.09440803527832031
      ],
      "type": "VEC3"
    },
    {
      "bufferView": 2,
      "byteOffset": 786384,
      "componentType": 5126,
      "count": 65532,
      "max": [
        0.9997944831848145,
        0.9999967813491821,
        0.9999679327011108
      ],
      "min": [
        -0.9999369382858276,
        -1.0,
        -0.9999767541885376
      ],
      "type": "VEC3"
    },
    {
      "bufferView": 1,
      "componentType": 5126,
      "count": 65532,
      "max": [
        0.999081015586853,
        0.9396950006484985
      ],
      "min": [
        0.0003539999888744205,
        0.0006230000290088356
      ],
      "type": "VEC2"
    },
    {
      "bufferView": 0,
      "componentType": 5125,
      "count": 320925,
      "type": "SCALAR"
    },
    {
      "bufferView": 2,
      "byteOffset": 1572768,
      "componentType": 5126,
      "count": 65532,
      "max": [
        12.228096008300781,
        7.211458683013916,
        26.222015380859375
      ],
      "min": [
        0.0,
        0.0,
        0.0
      ],
      "type": "VEC3"
    },
    {
      "bufferView": 2,
      "byteOffset": 2359152,
      "componentType": 5126,
      "count": 65532,
      "max": [
        0.9999991059303284,
        1.0,
        0.9999820590019226
      ],
      "min": [
        -0.9999986290931702,
        -1.0,
        -0.9999897480010986
      ],
      "type": "VEC3"
    },
    {
      "bufferView": 1,
      "byteOffset": 524256,
      "componentType": 5126,
      "count": 65532,
      "max": [
        0.9996160268783569,
        0.9396970272064209
      ],
      "min": [
        0.0013729999773204327,
        0.0005460000247694552
      ],
      "type": "VEC2"
    },
    {
      "bufferView": 0,
      "byteOffset": 1283700,
      "componentType": 5125,
      "count": 288573,
      "type": "SCALAR"
    },
    {
      "bufferView": 2,
      "byteOffset": 3145536,
      "componentType": 5126,
      "count": 65532,
      "max": [
        10.992544174194336,
        6.799989700317383,
        25.562084197998047
      ],
      "min": [
        1.477306842803955,
        0.0,
        4.895564556121826
      ],
      "type": "VEC3"
    },
    {
      "bufferView": 2,
      "byteOffset": 3931920,
      "componentType": 5126,
      "count": 65532,
      "max": [
        0.999984860420227,
        0.9999974370002747,
        0.9999982714653015
      ],
      "min": [
        -1.0,
        -1.0,
        -0.9999991059303284
      ],
      "type": "VEC3"
    },
    {
      "bufferView": 1,
      "byteOffset": 1048512,
      "componentType": 5126,
      "count": 65532,
      "max": [
        0.9993699789047241,
        0.9401839971542358
      ],
      "min": [
        0.0002629999944474548,
        0.0006189999985508621
      ],
      "type": "VEC2"
    },
    {
      "bufferView": 0,
      "byteOffset": 2437992,
      "componentType": 5125,
      "count": 264696,
      "type": "SCALAR"
    },
    {
      "bufferView": 2,
      "byteOffset": 4718304,
      "componentType": 5126,
      "count": 65532,
      "max": [
        11.907524108886719,
        7.141084671020508,
        25.542621612548828
      ],
      "min": [
        1.3987460136413574,
        0.0,
        0.0
      ],
      "type": "VEC3"
    },
    {
      "bufferView": 2,
      "byteOffset": 5504688,
      "componentType": 5126,
      "count": 65532,
      "max": [
        0.9999999403953552,
        0.9999871253967285,
        0.999997615814209
      ],
      "min": [
        -0.9999990463256836,
        -0.999998927116394,
        -0.9999949932098389
      ],
      "type": "VEC3"
    },
    {
      "bufferView": 1,
      "byteOffset": 1572768,
      "componentType": 5126,
      "count": 65532,
      "max": [
        0.9992340207099915,
        0.9396799802780151
      ],
      "min": [
        0.0002640000020619482,
        0.012209000065922737
      ],
      "type": "VEC2"
    },
    {
      "bufferView": 0,
      "byteOffset": 3496776,
      "componentType": 5125,
      "count": 275772,
      "type": "SCALAR"
    },
    {
      "bufferView": 2,
      "byteOffset": 6291072,
      "componentType": 5126,
      "count": 65532,
      "max": [
        12.228096008300781,
        7.141358852386475,
        26.075624465942383
      ],
      "min": [
        1.4618525505065918,
        0.5129203796386719,
        5.978576183319092
      ],
      "type": "VEC3"
    },
    {
      "bufferView": 2,
      "byteOffset": 7077456,
      "componentType": 5126,
      "count": 65532,
      "max": [
        0.9999997615814209,
        1.0,
        0.9999953508377075
      ],
      "min": [
        -0.9999992847442627,
        -1.0,
        -0.9999979138374329
      ],
      "type": "VEC3"
    },
    {
      "bufferView": 1,
      "byteOffset": 2097024,
      "componentType": 5126,
      "count": 65532,
      "max": [
        0.9992780089378357,
        0.940123975276947
      ],
      "min": [
        0.00040600000647827983,
        0.0006169999833218753
      ],
      "type": "VEC2"
    },
    {
      "bufferView": 0,
      "byteOffset": 4599864,
      "componentType": 5125,
      "count": 271131,
      "type": "SCALAR"
    },
    {
      "bufferView": 2,
      "byteOffset": 7863840,
      "componentType": 5126,
      "count": 65532,
      "max": [
        12.074233055114746,
        7.141358852386475,
        25.5159912109375
      ],
      "min": [
        1.486989974975586,
        0.0,
        0.0
      ],
      "type": "VEC3"
    },
    {
      "bufferView": 2,
      "byteOffset": 8650224,
      "componentType": 5126,
      "count": 65532,
      "max": [
        1.0,
        0.9999868273735046,
        0.9999993443489075
      ],
      "min": [
        -0.9999999403953552,
        -0.9999989867210388,
        -0.9999991059303284
      ],
      "type": "VEC3"
    },
    {
      "bufferView": 1,
      "byteOffset": 2621280,
      "componentType": 5126,
      "count": 65532,
      "max": [
        0.9995830059051514,
        0.9396759867668152
      ],
      "min": [
        0.00025099999038502574,
        0.024205999448895454
      ],
      "type": "VEC2"
    },
    {
      "bufferView": 0,
      "byteOffset": 5684388,
      "componentType": 5125,
      "count": 241884,
      "type": "SCALAR"
    },
    {
      "bufferView": 2,
      "byteOffset": 9436608,
      "componentType": 5126,
      "count": 65532,
      "max": [
        12.137067794799805,
        7.141084671020508,
        26.222015380859375
      ],
      "min": [
        0.0,
        0.5129203796386719,
        0.0
      ],
      "type": "VEC3"
    },
    {
      "bufferView": 2,
      "byteOffset": 10222992,
      "componentType": 5126,
      "count": 65532,
      "max": [
        0.9999998807907104,
        0.9999978542327881,
        0.9999963045120239
      ],
      "min": [
        -0.9999999403953552,
        -0.9999999403953552,
        -0.9999990463256836
      ],
      "type": "VEC3"
    },
    {
      "bufferView": 1,
      "byteOffset": 3145536,
      "componentType": 5126,
      "count": 65532,
      "max": [
        0.9994959831237793,
        0.9396740198135376
      ],
      "min": [
        0.0003910000086762011,
        0.042381998151540756
      ],
      "type": "VEC2"
    },
    {
      "bufferView": 0,
      "byteOffset": 6651924,
      "componentType": 5125,
      "count": 263364,
      "type": "SCALAR"
    },
    {
      "bufferView": 2,
      "byteOffset": 11009376,
      "componentType": 5126,
      "count": 65532,
      "max": [
        12.228096008300781,
        7.1413445472717285,
        26.148080825805664
      ],
      "min": [
        4.76837158203125e-07,
        0.5129203796386719,
        0.0
      ],
      "type": "VEC3"
    },
    {
      "bufferView": 2,
      "byteOffset": 11795760,
      "componentType": 5126,
      "count": 65532,
      "max": [
        0.9999972581863403,
        1.0,
        0.9999986886978149
      ],
      "min": [
        -0.9999993443489075,
        -0.9999997615814209,
        -0.9999989867210388
      ],
      "type": "VEC3"
    },
    {
      "bufferView": 1,
      "byteOffset": 3669792,
      "componentType": 5126,
      "count": 65532,
      "max": [
        0.9996020197868347,
        0.9401400089263916
      ],
      "min": [
        0.00025400001322850585,
        0.003894000081345439
      ],
      "type": "VEC2"
    },
    {
      "bufferView": 0,
      "byteOffset": 7705380,
      "componentType": 5125,
      "count": 235842,
      "type": "SCALAR"
    },
    {
      "bufferView": 2,
      "byteOffset": 12582144,
      "componentType": 5126,
      "count": 65532,
      "max": [
        11.644208908081055,
        7.211458683013916,
        26.222015380859375
      ],
      "min": [
        4.76837158203125e-07,
        0.5129203796386719,
        0.1463909149169922
      ],
      "type": "VEC3"
    },
    {
      "bufferView": 2,
      "byteOffset": 13368528,
      "componentType": 5126,
      "count": 65532,
      "max": [
        0.9999990463256836,
        0.9999812841415405,
        0.9999803304672241
      ],
      "min": [
        -0.999998927116394,
        -1.0,
        -0.9999961853027344
      ],
      "type": "VEC3"
    },
    {
      "bufferView": 1,
      "byteOffset": 4194048,
      "componentType": 5126,
      "count": 65532,
      "max": [
        0.999530017375946,
        0.9401599764823914
      ],
      "min": [
        0.00024900000425986946,
        0.0006220000213943422
      ],
      "type": "VEC2"
    },
    {
      "bufferView": 0,
      "byteOffset": 8648748,
      "componentType": 5125,
      "count": 242190,
      "type": "SCALAR"
    },
    {
      "bufferView": 2,
      "byteOffset": 14154912,
      "componentType": 5126,
      "count": 65532,
      "max": [
        11.17158031463623,
        7.211458683013916,
        26.222015380859375
      ],
      "min": [
        4.76837158203125e-07,
        1.7640666961669922,
        0.1463909149169922
      ],
      "type": "VEC3"
    },
    {
      "bufferView": 2,
      "byteOffset": 14941296,
      "componentType": 5126,
      "count": 65532,
      "max": [
        0.9999998211860657,
        0.9999899864196777,
        0.999998927116394
      ],
      "min": [
        -0.9999932646751404,
        -0.9999999403953552,
        -0.9999969601631165
      ],
      "type": "VEC3"
    },
    {
      "bufferView": 1,
      "byteOffset": 4718304,
      "componentType": 5126,
      "count": 65532,
      "max": [
        0.9996240139007568,
        0.9401819705963135
      ],
      "min": [
        0.0002789999998640269,
        0.004838999826461077
      ],
      "type": "VEC2"
    },
    {
      "bufferView": 0,
      "byteOffset": 9617508,
      "componentType": 5125,
      "count": 203781,
      "type": "SCALAR"
    },
    {
      "bufferView": 2,
      "byteOffset": 15727680,
      "componentType": 5126,
      "count": 65533,
      "max": [
        10.956108093261719,
        7.210440635681152,
        25.60035514831543
      ],
      "min": [
        4.76837158203125e-07,
        1.3143587112426758,
        0.1463909149169922
      ],
      "type": "VEC3"
    },
    {
      "bufferView": 2,
      "byteOffset": 16514076,
      "componentType": 5126,
      "count": 65533,
      "max": [
        0.9999997615814209,
        0.9999956488609314,
        0.9999997615814209
      ],
      "min": [
        -0.9999995231628418,
        -0.9999998211860657,
        -0.9999909996986389
      ],
      "type": "VEC3"
    },
    {
      "bufferView": 1,
      "byteOffset": 5242560,
      "componentType": 5126,
      "count": 65533,
      "max": [
        0.9994459748268127,
        0.9401819705963135
      ],
      "min": [
        0.00033099998836405575,
        0.02226400002837181
      ],
      "type": "VEC2"
    },
    {
      "bufferView": 0,
      "byteOffset": 10432632,
      "componentType": 5125,
      "count": 227547,
      "type": "SCALAR"
    },
    {
      "bufferView": 2,
      "byteOffset": 17300472,
      "componentType": 5126,
      "count": 48525,
      "max": [
        10.913185119628906,
        7.141084671020508,
        20.1093692779541
      ],
      "min": [
        0.0,
        0.5129203796386719,
        0.06862545013427734
      ],
      "type": "VEC3"
    },
    {
      "bufferView": 2,
      "byteOffset": 17882772,
      "componentType": 5126,
      "count": 48525,
      "max": [
        1.0,
        0.9999958872795105,
        0.9999997615814209
      ],
      "min": [
        -0.9999988675117493,
        -1.0,
        -0.9999327659606934
      ],
      "type": "VEC3"
    },
    {
      "bufferView": 1,
      "byteOffset": 5766824,
      "componentType": 5126,
      "count": 48525,
      "max": [
        0.9995599985122681,
        0.9396860003471375
      ],
      "min": [
        0.00024900000425986946,
        0.02529899962246418
      ],
      "type": "VEC2"
    },
    {
      "bufferView": 0,
      "byteOffset": 11342820,
      "componentType": 5125,
      "count": 164289,
      "type": "SCALAR"
    }
  ],
  "asset": {
    "extras": {
      "author": "The Hallwyl Museum (Hallwylska museet) (https://sketchfab.com/TheHallwylMuseum)",
      "license": "CC-BY-4.0 (http://creativecommons.org/licenses/by/4.0/)",
      "source": "https://sketchfab.com/3d-models/the-picture-gallery-231fdb3e9e354c6faaa3c250f8c9988f",
      "title": "The Picture Gallery"
    },
    "generator": "Sketchfab-12.65.0",
    "version": "2.0"
  },
  "bufferViews": [
    {
      "buffer": 0,
      "byteLength": 11999976,
      "name": "floatBufferViews",
      "target": 34963
    },
    {
      "buffer": 0,
      "byteLength": 6155024,
      "byteOffset": 11999976,
      "byteStride": 8,
      "name": "floatBufferViews",
      "target": 34962
    },
    {
      "buffer": 0,
      "byteLength": 18465072,
      "byteOffset": 18155000,
      "byteStride": 12,
      "name": "floatBufferViews",
      "target": 34962
    }
  ],
  "buffers": [
    {
      "byteLength": 36620072,
      "uri": "scene.bin"
    }
  ],
  "images": [
    {
      "uri": "textures/161122_HWY_Galleri_Material_u1_v1_baseColor.jpeg"
    }
  ],
  "materials": [
    {
      "name": "161122_HWY_Galleri_Material_u1_v1",
      "pbrMetallicRoughness": {
        "baseColorTexture": {
          "index": 0
        },
        "metallicFactor": 0.0,
        "roughnessFactor": 0.6
      }
    }
  ],
  "meshes": [
    {
      "name": "Object_0",
      "primitives": [
        {
          "attributes": {
            "NORMAL": 1,
            "POSITION": 0,
            "TEXCOORD_0": 2
          },
          "indices": 3,
          "material": 0,
          "mode": 4
        }
      ]
    },
    {
      "name": "Object_1",
      "primitives": [
        {
          "attributes": {
            "NORMAL": 5,
            "POSITION": 4,
            "TEXCOORD_0": 6
          },
          "indices": 7,
          "material": 0,
          "mode": 4
        }
      ]
    },
    {
      "name": "Object_2",
      "primitives": [
        {
          "attributes": {
            "NORMAL": 9,
            "POSITION": 8,
            "TEXCOORD_0": 10
          },
          "indices": 11,
          "material": 0,
          "mode": 4
        }
      ]
    },
    {
      "name": "Object_3",
      "primitives": [
        {
          "attributes": {
            "NORMAL": 13,
            "POSITION": 12,
            "TEXCOORD_0": 14
          },
          "indices": 15,
          "material": 0,
          "mode": 4
        }
      ]
    },
    {
      "name": "Object_4",
      "primitives": [
        {
          "attributes": {
            "NORMAL": 17,
            "POSITION": 16,
            "TEXCOORD_0": 18
          },
          "indices": 19,
          "material": 0,
          "mode": 4
        }
      ]
    },
    {
      "name": "Object_5",
      "primitives": [
        {
          "attributes": {
            "NORMAL": 21,
            "POSITION": 20,
            "TEXCOORD_0": 22
          },
          "indices": 23,
          "material": 0,
          "mode": 4
        }
      ]
    },
    {
      "name": "Object_6",
      "primitives": [
        {
          "attributes": {
            "NORMAL": 25,
            "POSITION": 24,
            "TEXCOORD_0": 26
          },
          "indices": 27,
          "material": 0,
          "mode": 4
        }
      ]
    },
    {
      "name": "Object_7",
      "primitives": [
        {
          "attributes": {
            "NORMAL": 29,
            "POSITION": 28,
            "TEXCOORD_0": 30
          },
          "indices": 31,
          "material": 0,
          "mode": 4
        }
      ]
    },
    {
      "name": "Object_8",
      "primitives": [
        {
          "attributes": {
            "NORMAL": 33,
            "POSITION": 32,
            "TEXCOORD_0": 34
          },
          "indices": 35,
          "material": 0,
          "mode": 4
        }
      ]
    },
    {
      "name": "Object_9",
      "primitives": [
        {
          "attributes": {
            "NORMAL": 37,
            "POSITION": 36,
            "TEXCOORD_0": 38
          },
          "indices": 39,
          "material": 0,
          "mode": 4
        }
      ]
    },
    {
      "name": "Object_10",
      "primitives": [
        {
          "attributes": {
            "NORMAL": 41,
            "POSITION": 40,
            "TEXCOORD_0": 42
          },
          "indices": 43,
          "material": 0,
          "mode": 4
        }
      ]
    },
    {
      "name": "Object_11",
      "primitives": [
        {
          "attributes": {
            "NORMAL": 45,
            "POSITION": 44,
            "TEXCOORD_0": 46
          },
          "indices": 47,
          "material": 0,
          "mode": 4
        }
      ]
    }
  ],
  "nodes": [
    {
      "children": [
        1
      ],
      "matrix": [
        0.03004670796912734,
        -0.00035702978872911503,
        -7.927653838482374e-20,
        0.0,
        -0.000357023184233151,
        -0.030046152743703924,
        0.00018265305884844339,
        0.0,
        -2.1702194895133035e-06,
        -0.00018264015769319165,
        -0.03004827334661142,
        0.0,
        -0.04212639480829239,
        -3.0580906867980966,
        4.0572447776794425,
        1.0
      ],
      "name": "Sketchfab_model"
    },
    {
      "children": [
        2,
        3,
        4,
        5,
        6,
        7,
        8,
        9,
        10,
        11,
        12,
        13
      ],
      "matrix": [
        1.0,
        0.0,
        0.0,
        0.0,
        0.0,
        1.0,
        0.0,
        0.0,
        0.0,
        0.0,
        1.0,
        0.0,
        -6.020400047302246,
        -7.154806613922119,
        -12.624401092529297,
        1.0
      ],
      "name": "161122_HWY_Galleri.obj.cleaner.gles"
    },
    {
      "mesh": 0,
      "name": "Object_2"
    },
    {
      "mesh": 1,
      "name": "Object_3"
    },
    {
      "mesh": 2,
      "name": "Object_4"
    },
    {
      "mesh": 3,
      "name": "Object_5"
    },
    {
      "mesh": 4,
      "name": "Object_6"
    },
    {
      "mesh": 5,
      "name": "Object_7"
    },
    {
      "mesh": 6,
      "name": "Object_8"
    },
    {
      "mesh": 7,
      "name": "Object_9"
    },
    {
      "mesh": 8,
      "name": "Object_10"
    },
    {
      "mesh": 9,
      "name": "Object_11"
    },
    {
      "mesh": 10,
      "name": "Object_12"
    },
    {
      "mesh": 11,
      "name": "Object_13"
    }
  ],
  "samplers": [
    {
      "magFilter": 9729,
      "minFilter": 9987,
      "wrapS": 10497,
      "wrapT": 10497
    }
  ],
  "scene": 0,
  "scenes": [
    {
      "name": "Sketchfab_Scene",
      "nodes": [
        0
      ]
    }
  ],
  "textures": [
    {
      "sampler": 0,
      "source": 0
    }
  ]
}
